<?xml version="1.0" encoding="UTF-8"?>
<svg viewBox="0 0 50 15" version="1.1" xmlns="http://www.w3.org/2000/svg" xmlns:xlink="http://www.w3.org/1999/xlink">
    <!-- Generator: Sketch 53.2 (72643) - https://sketchapp.com -->
    <title>Artboard</title>
    <desc>Created with Sketch.</desc>
    <g id="Artboard" stroke="none" stroke-width="1" fill="none" fill-rule="evenodd">
        <path d="M5.89477539,12 L3.80004883,12 L3.80004883,3.59912109 L0.643310547,3.59912109 L0.643310547,1.49707031 L9.04418945,1.49707031 L9.04418945,3.59912109 L5.89477539,3.59912109 L5.89477539,12 Z M11.9592285,12 L9.94506836,12 L9.94506836,4.15576172 L11.9592285,4.15576172 L11.9592285,12 Z M15.4968262,14.9882812 L13.482666,14.9882812 L13.482666,4.15576172 L13.9660645,4.15576172 L14.7644043,5.10058594 C14.9450693,4.92968665 15.1428212,4.76855544 15.357666,4.6171875 C15.5725108,4.46581956 15.7958973,4.33520563 16.027832,4.2253418 C16.2597668,4.11547797 16.5002429,4.02880891 16.7492676,3.96533203 C16.9982923,3.90185515 17.2497546,3.87011719 17.5036621,3.87011719 C18.0554227,3.87011719 18.5742163,3.96899315 19.0600586,4.16674805 C19.5459009,4.36450294 19.9707013,4.64404116 20.3344727,5.00537109 C20.698244,5.36670103 20.9851064,5.80248768 21.1950684,6.31274414 C21.4050303,6.8230006 21.5100098,7.38818049 21.5100098,8.00830078 C21.5100098,8.65283525 21.4050303,9.23266344 21.1950684,9.74780273 C20.9851064,10.262942 20.698244,10.6999494 20.3344727,11.0588379 C19.9707013,11.4177264 19.5459009,11.6923819 19.0600586,11.8828125 C18.5742163,12.0732431 18.0554227,12.168457 17.5036621,12.168457 C17.32788,12.168457 17.1533212,12.148926 16.9799805,12.1098633 C16.8066398,12.0708006 16.635743,12.0183109 16.4672852,11.9523926 C16.2988273,11.8864743 16.1328133,11.8120121 15.9692383,11.7290039 C15.8056632,11.6459957 15.6481941,11.5605473 15.4968262,11.4726562 L15.4968262,14.9882812 Z M19.5031738,8.00830078 C19.5031738,7.67626787 19.4506841,7.37841929 19.3457031,7.11474609 C19.2407221,6.8510729 19.0979013,6.62768646 18.9172363,6.44458008 C18.7365714,6.26147369 18.5241711,6.12109424 18.2800293,6.0234375 C18.0358875,5.92578076 17.777101,5.87695312 17.5036621,5.87695312 C17.2302232,5.87695312 16.9726575,5.92578076 16.730957,6.0234375 C16.4892566,6.12109424 16.2780771,6.26147369 16.0974121,6.44458008 C15.9167471,6.62768646 15.7739263,6.8510729 15.6689453,7.11474609 C15.5639643,7.37841929 15.5114746,7.67626787 15.5114746,8.00830078 C15.5114746,8.32568518 15.5639643,8.61620962 15.6689453,8.87988281 C15.7739263,9.14355601 15.9167471,9.36816313 16.0974121,9.55371094 C16.2780771,9.73925874 16.4892566,9.88330027 16.730957,9.98583984 C16.9726575,10.0883794 17.2302232,10.1396484 17.5036621,10.1396484 C17.777101,10.1396484 18.0358875,10.0883794 18.2800293,9.98583984 C18.5241711,9.88330027 18.7365714,9.73925874 18.9172363,9.55371094 C19.0979013,9.36816313 19.2407221,9.14355601 19.3457031,8.87988281 C19.4506841,8.61620962 19.5031738,8.32568518 19.5031738,8.00830078 Z M24.9304199,12 L22.8283691,12 L22.8283691,1.49707031 L24.9304199,1.49707031 L24.9304199,5.70117188 L29.1271973,5.70117188 L29.1271973,1.49707031 L31.229248,1.49707031 L31.229248,12 L29.1271973,12 L29.1271973,7.80322266 L24.9304199,7.80322266 L24.9304199,12 Z M38.626709,11.0844727 C38.4655754,11.2309578 38.2934579,11.3688958 38.1103516,11.498291 C37.9272452,11.6276862 37.7355967,11.7399898 37.5354004,11.8352051 C37.3352041,11.9304204 37.1289073,12.0061032 36.9165039,12.0622559 C36.7041005,12.1184085 36.4880382,12.1464844 36.2683105,12.1464844 C35.7849097,12.1464844 35.3308127,12.061036 34.9060059,11.8901367 C34.481199,11.7192374 34.1088883,11.4763199 33.7890625,11.161377 C33.4692367,10.846434 33.2177744,10.463137 33.034668,10.0114746 C32.8515616,9.55981219 32.7600098,9.05322546 32.7600098,8.49169922 L32.7600098,4.15576172 L34.7521973,4.15576172 L34.7521973,8.49169922 C34.7521973,8.75537241 34.7924801,8.99096576 34.8730469,9.19848633 C34.9536137,9.4060069 35.0622552,9.5805657 35.1989746,9.72216797 C35.335694,9.86377024 35.4956046,9.97119104 35.6787109,10.0444336 C35.8618173,10.1176761 36.0583486,10.1542969 36.2683105,10.1542969 C36.4733897,10.1542969 36.6674796,10.1066899 36.8505859,10.0114746 C37.0336923,9.91625929 37.1936028,9.79052812 37.3303223,9.63427734 C37.4670417,9.47802656 37.5744625,9.30102638 37.6525879,9.10327148 C37.7307133,8.90551659 37.7697754,8.70166121 37.7697754,8.49169922 L37.7697754,4.15576172 L39.7692871,4.15576172 L39.7692871,12 L39.2858887,12 L38.626709,11.0844727 Z M49.1442871,8.00830078 C49.1442871,8.62353823 49.0393077,9.18505605 48.8293457,9.69287109 C48.6193837,10.2006861 48.333742,10.6364728 47.9724121,11.0002441 C47.6110822,11.3640155 47.1875024,11.6459951 46.7016602,11.8461914 C46.2158179,12.0463877 45.6945829,12.1464844 45.1379395,12.1464844 C44.5861789,12.1464844 44.0673852,12.0439463 43.581543,11.8388672 C43.0957007,11.633788 42.6709003,11.3481464 42.3071289,10.9819336 C41.9433576,10.6157208 41.6564952,10.1799342 41.4465332,9.67456055 C41.2365712,9.16918693 41.1315918,8.61377256 41.1315918,8.00830078 L41.1315918,1.03564453 L43.1384277,1.03564453 L43.1384277,4.69775391 C43.2458501,4.56103447 43.3764641,4.43896538 43.5302734,4.33154297 C43.6840828,4.22412056 43.8500968,4.13623081 44.0283203,4.06787109 C44.2065439,3.99951138 44.3908682,3.94702167 44.5812988,3.91040039 C44.7717295,3.87377911 44.9572745,3.85546875 45.1379395,3.85546875 C45.6945829,3.85546875 46.2158179,3.95922748 46.7016602,4.16674805 C47.1875024,4.37426862 47.6110822,4.66357236 47.9724121,5.03466797 C48.333742,5.40576357 48.6193837,5.84399161 48.8293457,6.34936523 C49.0393077,6.85473885 49.1442871,7.40771184 49.1442871,8.00830078 Z M47.130127,8.00830078 C47.130127,7.70556489 47.0776372,7.42358529 46.9726562,7.16235352 C46.8676753,6.90112174 46.7248544,6.67529392 46.5441895,6.48486328 C46.3635245,6.29443264 46.152345,6.14550835 45.9106445,6.03808594 C45.6689441,5.93066353 45.4113783,5.87695312 45.1379395,5.87695312 C44.8645006,5.87695312 44.6069348,5.93676698 44.3652344,6.05639648 C44.1235339,6.17602599 43.9123544,6.33471581 43.7316895,6.5324707 C43.5510245,6.7302256 43.4094243,6.95727411 43.3068848,7.21362305 C43.2043452,7.46997198 43.1530762,7.73486191 43.1530762,8.00830078 C43.1530762,8.31103667 43.2043452,8.59179558 43.3068848,8.85058594 C43.4094243,9.10937629 43.5510245,9.33398342 43.7316895,9.52441406 C43.9123544,9.7148447 44.1235339,9.86498969 44.3652344,9.97485352 C44.6069348,10.0847173 44.8645006,10.1396484 45.1379395,10.1396484 C45.4113783,10.1396484 45.6689441,10.0847173 45.9106445,9.97485352 C46.152345,9.86498969 46.3635245,9.7148447 46.5441895,9.52441406 C46.7248544,9.33398342 46.8676753,9.10937629 46.9726562,8.85058594 C47.0776372,8.59179558 47.130127,8.31103667 47.130127,8.00830078 Z" id="TipHub" fill="#333333" fill-rule="nonzero"></path>
        <path d="M12.3034668,2.02441406 C12.3034668,2.20996187 12.2680668,2.38329998 12.1972656,2.54443359 C12.1264645,2.70556721 12.0300299,2.84594667 11.907959,2.96557617 C11.7858881,3.08520568 11.6430672,3.18041957 11.4794922,3.2512207 C11.3159172,3.32202184 11.1413583,3.35742188 10.9558105,3.35742188 C10.7702627,3.35742188 10.5957039,3.32202184 10.4321289,3.2512207 C10.2685539,3.18041957 10.1269537,3.08520568 10.0073242,2.96557617 C9.88769471,2.84594667 9.79248082,2.70556721 9.72167969,2.54443359 C9.65087855,2.38329998 9.61547852,2.20996187 9.61547852,2.02441406 C9.61547852,1.8437491 9.65087855,1.67163168 9.72167969,1.50805664 C9.79248082,1.3444816 9.88769471,1.20288146 10.0073242,1.08325195 C10.1269537,0.963622449 10.2685539,0.868408557 10.4321289,0.797607422 C10.5957039,0.726806287 10.7702627,0.69140625 10.9558105,0.69140625 C11.1413583,0.69140625 11.3159172,0.726806287 11.4794922,0.797607422 C11.6430672,0.868408557 11.7858881,0.963622449 11.907959,1.08325195 C12.0300299,1.20288146 12.1264645,1.3444816 12.1972656,1.50805664 C12.2680668,1.67163168 12.3034668,1.8437491 12.3034668,2.02441406 Z" id="Path" fill="#E95420" fill-rule="nonzero"></path>
    </g>
</svg>
